<svg xmlns="http://www.w3.org/2000/svg" viewBox="0 0 100 100">
  <defs>
    <linearGradient id="navGrad" x1="0%" y1="0%" x2="100%" y2="100%">
      <stop offset="0%" stop-color="#0B1B3D" />
      <stop offset="100%" stop-color="#173051" />
    </linearGradient>
    <linearGradient id="goldGrad" x1="0%" y1="0%" x2="100%" y2="100%">
      <stop offset="0%" stop-color="#F59E0B" />
      <stop offset="100%" stop-color="#FBBF24" />
    </linearGradient>
  </defs>
  <rect width="100" height="100" rx="24" fill="url(#navGrad)" />
  <circle cx="50" cy="50" r="42" stroke="url(#goldGrad)" stroke-width="2.5" fill="none" opacity="0.4" stroke-dasharray="6 4"/>
  <!-- Stylized Car Silhouette -->
  <path d="M 22 55 L 32 40 Q 35 36 42 36 L 58 36 Q 65 36 68 40 L 78 55 Q 82 58 82 64 L 18 64 Q 18 58 22 55 Z" fill="url(#goldGrad)"/>
  <rect x="34" y="40" width="13" height="10" rx="2" fill="#0B1B3D"/>
  <rect x="53" y="40" width="13" height="10" rx="2" fill="#0B1B3D"/>
  <circle cx="32" cy="65" r="7" fill="#FFFFFF"/>
  <circle cx="32" cy="65" r="3.5" fill="#0B1B3D"/>
  <circle cx="68" cy="65" r="7" fill="#FFFFFF"/>
  <circle cx="68" cy="65" r="3.5" fill="#0B1B3D"/>
  <path d="M 44 26 L 50 18 L 56 26 Z" fill="url(#goldGrad)"/>
</svg>